<?xml version="1.0" encoding="iso-8859-1"?>
<!-- Generator: Adobe Illustrator 16.0.0, SVG Export Plug-In . SVG Version: 6.00 Build 0)  -->
<!DOCTYPE svg PUBLIC "-//W3C//DTD SVG 1.1//EN" "http://www.w3.org/Graphics/SVG/1.1/DTD/svg11.dtd">
<svg width="154" height="36" viewBox="0 0 154 36" fill="none" xmlns="http://www.w3.org/2000/svg"><path d="M54.8455 22.1555C53.6686 23.4207 52.4622 24.0386 51.1382 24.0386C48.6077 24.0386 46.6364 21.9495 46.6364 19.272C46.6364 16.565 48.5489 14.4759 51.0205 14.4759C52.8447 14.4759 54.0217 15.4469 54.8161 16.3002L54.9632 16.4767L56.4933 14.8584L56.3461 14.7113C55.3163 13.6226 53.7863 12.3574 51.0499 12.3574C47.2837 12.3574 44.2236 15.4763 44.2236 19.3014C44.2236 23.1853 47.2248 26.2453 51.0499 26.2453C53.8157 26.2453 55.4046 24.8624 56.4638 23.6855L56.6109 23.5089L55.0221 22.0378L54.8455 22.1555Z" fill="white"></path><path d="M64.7317 12.3289C62.9957 12.3289 61.5834 13.0057 60.5536 14.3592V7.15039L58.1997 8.29791V25.8638H60.5536V18.3019C60.5536 16.0657 62.0542 14.5063 64.2021 14.5063C66.2912 14.5063 67.527 15.8892 67.527 18.1548V25.8932H69.8809V17.684C69.8809 14.418 67.8801 12.3289 64.7317 12.3289Z" fill="white"></path><path d="M77.7368 12.3887C75.7066 12.3887 74.2354 12.9183 72.9702 13.5068L72.7936 13.595L73.5292 15.5664L73.7352 15.4781C75.1181 14.8603 76.2656 14.566 77.5602 14.566C79.9141 14.566 81.1499 15.6841 81.1499 17.832V17.9497C80.1789 17.6849 79.0608 17.4789 77.4425 17.4789C73.8529 17.4789 71.7344 19.1267 71.7344 21.8925C71.7344 24.6877 74.2648 26.1589 76.7658 26.1589C78.9137 26.1589 80.2966 25.2468 81.1793 24.3346V25.8647H83.5038V17.8026C83.5038 16.096 83.033 14.8014 82.0915 13.8598C81.0911 12.9183 79.5905 12.3887 77.7368 12.3887ZM81.1499 19.9211V20.9509C81.1499 22.8046 79.4139 24.1875 77.0895 24.1875C75.6477 24.1875 74.0883 23.4519 74.0883 21.8336C74.0883 20.333 75.4123 19.4209 77.6191 19.4209C79.1491 19.4209 80.3555 19.6857 81.1499 19.9211Z" fill="white"></path><path d="M92.802 12.3281C91.0661 12.3281 89.6537 13.0049 88.6239 14.3584V12.6224H86.27V25.9218H88.6239V18.3011C88.6239 16.0649 90.1245 14.5055 92.2724 14.5055C94.3615 14.5055 95.5973 15.8884 95.5973 18.154V25.8924H97.9512V17.6832C97.9512 14.4172 95.9209 12.3281 92.802 12.3281Z" fill="white"></path><path d="M110.956 14.5055C109.691 13.0637 108.073 12.3281 106.16 12.3281C104.571 12.3281 102.983 12.946 101.835 14.0053C100.57 15.1822 99.8931 16.8005 99.8931 18.6248C99.8931 20.4196 100.57 22.0673 101.835 23.2443C102.983 24.3035 104.571 24.9214 106.16 24.9214C108.073 24.9214 109.662 24.1564 110.986 22.6264V23.5091C110.986 26.2749 109.367 27.8638 106.543 27.8638C104.807 27.8638 103.189 27.3341 101.717 26.2749L101.511 26.1278L100.423 28.0109L100.599 28.1286C102.335 29.3349 104.365 29.9528 106.572 29.9528C108.72 29.9528 110.456 29.3349 111.633 28.158C112.751 27.0105 113.34 25.451 113.34 23.4502V12.5929H110.986V14.5055H110.956ZM111.045 18.5953C111.045 21.214 108.75 22.7735 106.543 22.7735C104.159 22.7735 102.306 20.9492 102.306 18.6248C102.306 16.212 104.071 14.476 106.543 14.476C108.75 14.4466 111.045 16.0061 111.045 18.5953Z" fill="white"></path><path d="M121.902 12.3281C118.253 12.3281 115.517 15.2999 115.517 19.2721C115.517 23.2443 118.371 26.216 122.167 26.216C124.403 26.216 126.08 25.451 127.639 23.715L127.786 23.5385L126.256 22.185L126.109 22.3321C124.962 23.5385 123.726 24.0681 122.225 24.0681C119.96 24.0681 118.283 22.5381 117.959 20.2431H128.11L128.14 20.0371C128.169 19.7429 128.169 19.5369 128.169 19.3604C128.14 15.1528 125.639 12.3281 121.902 12.3281ZM125.727 18.2717H117.93C118.283 15.9766 119.872 14.3878 121.872 14.3878C124.314 14.3878 125.462 16.3297 125.727 18.2717Z" fill="white"></path><path d="M130.346 25.8936H132.7V7.97461L130.346 9.15155V25.8936Z" fill="white"></path><path d="M135.79 25.8932H138.144V7.15039L135.79 8.32733V25.8932Z" fill="white"></path><path d="M150.678 12.5938L146.676 22.9508L142.145 12.5938H139.556L145.499 25.6284C144.705 27.4526 144.028 27.8057 143.116 27.8057C142.351 27.8057 141.822 27.688 141.204 27.3644L140.998 27.2467L140.174 29.1886L140.35 29.2769C141.321 29.7477 142.145 29.9536 143.175 29.9536C145.264 29.9536 146.559 28.865 147.647 26.1874L153.179 12.5938H150.678Z" fill="white"></path><path d="M37.7054 0.0588471C37.5583 0.0588471 34.2923 0.205965 30.2318 1.17694C24.7296 2.47158 20.6103 4.6195 18.0799 7.53243C17.5208 8.17975 16.9912 8.79764 16.5204 9.38611C15.52 9.65092 12.7542 10.4159 11.489 10.6513C10.7534 10.7984 10.1355 11.2104 9.69417 11.8283C8.78204 13.1523 7.19317 15.8593 7.13432 15.977L5.31006 19.0959L8.63492 17.6541C10.0767 17.0068 12.1069 16.5655 12.6954 16.9185C12.7248 16.948 12.7542 16.948 12.7836 17.1245C12.7836 18.0661 13.019 18.9782 13.4604 19.8903C12.5483 20.5965 12.0481 21.7146 12.1069 22.8621V26.9226H16.1673C17.3149 26.9814 18.4035 26.4518 19.1391 25.5691C20.0513 26.0104 20.9634 26.2164 21.9049 26.2458C22.0521 26.2752 22.0815 26.3047 22.0815 26.3341C22.4346 26.9226 21.9932 28.9528 21.3459 30.3945L19.9041 33.69L23.023 31.8657C23.1407 31.8069 25.8477 30.218 27.1718 29.3059C27.7897 28.8939 28.2016 28.2466 28.3487 27.511C28.6135 26.2458 29.3491 23.48 29.6139 22.4796C30.2024 22.0088 30.8203 21.4792 31.4676 20.9201C38.2939 14.8883 38.9118 1.82426 38.9412 1.26521L39 0L37.7054 0.0588471ZM13.2544 14.6235C12.4894 14.3881 11.6067 14.4175 10.7534 14.5647C11.0771 14.035 11.4007 13.5348 11.6655 13.1523C11.7244 13.0346 11.8421 12.9758 11.9892 12.9464C12.5777 12.8287 13.4898 12.5933 14.4019 12.3873C13.8723 13.1818 13.5192 13.9173 13.2544 14.6235ZM17.256 24.0685C17.0206 24.3921 16.6087 24.5687 16.2262 24.5392H15.8437L18.2858 20.7142L14.4608 23.1858V22.7738C14.4314 22.3619 14.6079 21.9794 14.9316 21.744L19.6099 18.0366C19.8453 17.8307 20.169 17.6836 20.4632 17.6247L21.699 17.3305L21.4047 18.5663C21.3165 18.8899 21.1988 19.1842 20.9928 19.4195L17.256 24.0685ZM26.0242 27.0402C25.9948 27.1579 25.936 27.2756 25.8183 27.3639C25.4358 27.6287 24.9356 27.9524 24.4059 28.276C24.5531 27.4228 24.5825 26.54 24.3471 25.775C25.0533 25.5102 25.7889 25.1571 26.5833 24.6569C26.3773 25.5396 26.1419 26.4223 26.0242 27.0402ZM29.9081 19.1547C25.8477 22.7444 23.6115 23.8037 21.9932 23.8625C21.9638 23.8625 21.9638 23.8625 21.9344 23.8625C21.4342 23.8625 21.0222 23.7742 20.6103 23.6271L22.7876 20.8613C23.1996 20.3317 23.4938 19.7432 23.6704 19.0959L24.8473 14.1527L19.9041 15.3297C19.2568 15.4768 18.6389 15.771 18.1387 16.183L15.3729 18.3603C15.2258 17.9484 15.1375 17.5364 15.1375 17.0362C15.1375 17.0068 15.1375 17.0068 15.1375 16.9774C15.1669 15.3885 16.2556 13.1229 19.8453 9.06245C24.1706 4.14872 33.1153 2.82466 36.4696 2.501C36.1459 5.88471 34.8219 14.8295 29.9081 19.1547Z" fill="#10D078"></path><path d="M11.6223 32.7359C10.1217 33.0301 8.59168 33.1184 7.06165 33.1478C6.17895 33.1478 5.29624 33.1184 4.38411 33.0301C4.73719 32.4416 5.06085 31.8532 5.35509 31.2353C5.91413 29.97 6.32606 28.7048 6.64972 27.4102C6.94396 26.1744 7.29704 24.968 7.73839 23.7617C8.15032 22.5553 8.6211 21.3489 9.15072 20.1426C8.67995 20.6134 8.26802 21.1136 7.88551 21.6432C7.50301 22.1728 7.1205 22.7319 6.76742 23.2909C6.09067 24.409 5.5022 25.6448 5.002 26.8511C4.53123 28.0281 4.03103 29.205 3.44256 30.2643C2.85408 31.3235 2.17734 32.2945 1.35348 33.2361L0 34.8249L2.08907 35.1192C3.73679 35.3546 5.41393 35.4723 7.09108 35.4134C7.94436 35.384 8.76822 35.3251 9.6215 35.178C10.4454 35.0603 11.2986 34.8544 12.0931 34.619C13.7114 34.1482 15.2708 33.3832 16.6537 32.4122C17.3305 31.912 17.9778 31.353 18.5074 30.7056C19.037 30.0583 19.5372 29.3816 19.8609 28.6166C18.7428 29.7935 17.3893 30.6468 16.0064 31.3235C14.5941 32.0003 13.1229 32.4416 11.6223 32.7359Z" fill="#10D078"></path><path d="M29.055 14.0649C30.1143 14.0649 31.1735 13.653 31.9974 12.8585C33.6157 11.2402 33.6157 8.62154 31.9974 7.00324C31.2029 6.2088 30.1731 5.79688 29.055 5.79688C27.9369 5.79688 26.9071 6.23823 26.1126 7.00324C24.4944 8.62154 24.4944 11.2402 26.1126 12.8585C26.9071 13.653 27.9663 14.0649 29.055 14.0649ZM27.7604 8.65096C28.1134 8.29788 28.5548 8.12134 29.0256 8.12134C29.4964 8.12134 29.9671 8.29788 30.2908 8.65096C30.997 9.35712 30.997 10.4752 30.2908 11.1814C29.5846 11.8875 28.4665 11.8875 27.7604 11.1814C27.0836 10.5046 27.0836 9.35712 27.7604 8.65096Z" fill="#10D078"></path></svg>