<?xml version="1.0" encoding="iso-8859-1"?>
<!-- Generator: Adobe Illustrator 19.0.0, SVG Export Plug-In . SVG Version: 6.00 Build 0)  -->
<svg version="1.1" id="Layer_1" xmlns="http://www.w3.org/2000/svg" xmlns:xlink="http://www.w3.org/1999/xlink" x="0px" y="0px"
	 viewBox="0 0 505 505" style="enable-background:new 0 0 505 505;" xml:space="preserve">
<circle style="fill:#FD8469;" cx="252.5" cy="252.5" r="252.5"/>
<polygon style="fill:#FFFFFF;" points="327,86.1 327,139.7 380.5,139.7 380.5,418.9 127.3,418.9 127.3,86.1 "/>
<polygon style="fill:#E6E9EE;" points="327,86.1 380.5,139.7 327,139.7 "/>
<rect x="270" y="109" style="fill:#FF7058;" width="24.8" height="27.9"/>
<rect x="231.4" y="109" style="fill:#324A5E;" width="24.8" height="27.9"/>
<rect x="192.8" y="109" style="fill:#ACB3BA;" width="24.8" height="27.9"/>
<rect x="154.1" y="109" style="fill:#84DBFF;" width="24.8" height="27.9"/>
<g>
	<rect x="150.3" y="369.3" style="fill:#E6E9EE;" width="207.2" height="16.3"/>
	<rect x="150.3" y="336" style="fill:#E6E9EE;" width="207.2" height="16.3"/>
	<rect x="150.3" y="302.7" style="fill:#E6E9EE;" width="207.2" height="16.3"/>
	<rect x="150.3" y="269.3" style="fill:#E6E9EE;" width="207.2" height="16.3"/>
	<rect x="150.3" y="236" style="fill:#E6E9EE;" width="207.2" height="16.3"/>
	<rect x="150.3" y="202.7" style="fill:#E6E9EE;" width="122.1" height="16.3"/>
</g>
<g>
</g>
<g>
</g>
<g>
</g>
<g>
</g>
<g>
</g>
<g>
</g>
<g>
</g>
<g>
</g>
<g>
</g>
<g>
</g>
<g>
</g>
<g>
</g>
<g>
</g>
<g>
</g>
<g>
</g>
</svg>
