<svg xmlns="http://www.w3.org/2000/svg" width="191" height="186.328" viewBox="0 0 191 186.328">
  <g id="github-logo" transform="translate(0 -2.336)">
    <path id="Path_1074" data-name="Path 1074" d="M178.189,49.9a95.084,95.084,0,0,0-34.754-34.755A93.408,93.408,0,0,0,95.5,2.337,93.419,93.419,0,0,0,47.563,15.145,95.073,95.073,0,0,0,12.808,49.9,93.415,93.415,0,0,0,0,97.833a92.81,92.81,0,0,0,18.217,56.142,93.532,93.532,0,0,0,47.065,34.506q3.358.623,4.973-.869a4.863,4.863,0,0,0,1.616-3.729q0-.373-.063-6.715T71.746,166.1l-2.86.495a36.483,36.483,0,0,1-6.9.436,52.582,52.582,0,0,1-8.642-.871,19.311,19.311,0,0,1-8.332-3.728,15.777,15.777,0,0,1-5.47-7.646L38.3,151.928a31.071,31.071,0,0,0-3.916-6.341,15.005,15.005,0,0,0-5.409-4.725l-.871-.623a9.128,9.128,0,0,1-1.616-1.493A6.821,6.821,0,0,1,25.367,137q-.374-.872.622-1.432a8.065,8.065,0,0,1,3.606-.556l2.486.372a18.151,18.151,0,0,1,6.155,2.984,20.07,20.07,0,0,1,6.03,6.464,21.919,21.919,0,0,0,6.9,7.773,14.64,14.64,0,0,0,8.144,2.672,35.361,35.361,0,0,0,7.088-.62,24.731,24.731,0,0,0,5.6-1.866q1.119-8.335,6.092-12.809a85.143,85.143,0,0,1-12.745-2.239A50.748,50.748,0,0,1,53.654,132.9a33.476,33.476,0,0,1-10.011-8.33,40.036,40.036,0,0,1-6.527-13.057,62.089,62.089,0,0,1-2.549-18.652,36.269,36.269,0,0,1,9.824-25.617q-4.6-11.314.87-25.365,3.606-1.12,10.694,1.678a74.766,74.766,0,0,1,10.383,4.788q3.3,1.987,5.285,3.357a89.8,89.8,0,0,1,47.752,0l4.725-2.983a66.92,66.92,0,0,1,11.438-5.472q6.59-2.486,10.076-1.367,5.594,14.052.993,25.365a36.275,36.275,0,0,1,9.825,25.617,62.783,62.783,0,0,1-2.549,18.713,38.481,38.481,0,0,1-6.587,13.057,34.763,34.763,0,0,1-10.074,8.269,50.845,50.845,0,0,1-11.69,4.85,85.057,85.057,0,0,1-12.745,2.241q6.464,5.594,6.464,17.656v26.235a4.953,4.953,0,0,0,1.556,3.729q1.554,1.489,4.911.869a93.518,93.518,0,0,0,47.067-34.505A92.829,92.829,0,0,0,191,97.83,93.491,93.491,0,0,0,178.189,49.9Z" fill="#fff"/>
  </g>
</svg>
