<svg xmlns="http://www.w3.org/2000/svg" width="163" height="163" viewBox="0 0 163 163">
  <g id="Group_1108" data-name="Group 1108" transform="translate(-85 -116)">
    <rect id="Rectangle_211" data-name="Rectangle 211" width="163" height="163" rx="81.5" transform="translate(85 116)" fill="#34a1ff"/>
    <g id="Layer_1" data-name="Layer 1" transform="translate(110.002 141.001)">
      <g id="Layer_1-2" data-name="Layer 1" transform="translate(-0.002 -0.001)">
        <path id="Path_1086" data-name="Path 1086" d="M105.078,71.85a2.38,2.38,0,0,0-2.33-2.874h-.711a2.348,2.348,0,0,0-2.3,1.829A37.172,37.172,0,0,1,65.1,99.918c-26.172,1.067-46.72-25.194-35.386-52.53A33.938,33.938,0,0,1,48.066,29.05c18.755-7.759,37-.512,46.247,13.252a2.366,2.366,0,0,0,3.219.679l.423-.263a2.558,2.558,0,0,0,.761-3.6C88.539,24.123,69.027,15.951,48.607,23.009A40.157,40.157,0,0,0,23.847,47.4c-10.736,29.883,11.263,57.987,39.7,57.987A42.544,42.544,0,0,0,105.078,71.85Z" transform="translate(-6.414 -6.221)" fill="#fff"/>
        <path id="Path_1087" data-name="Path 1087" d="M54.073.057A56.7,56.7,0,0,0,2.276,72.6a2.689,2.689,0,0,0,3.735,1.644l.05-.025a2.7,2.7,0,0,0,1.423-3.2,51.249,51.249,0,1,1,38.14,35.721,2.586,2.586,0,0,0-2.572.928,2.764,2.764,0,0,0,1.551,4.415A56.7,56.7,0,1,0,54.073.057Z" transform="translate(0.002 0.001)" fill="#fff"/>
        <path id="Path_1088" data-name="Path 1088" d="M95.2,89.289a4.87,4.87,0,0,0-.587-1.857,10.17,10.17,0,0,0-1.836-2.216c-1.423-1.423-2.9-2.878-4.194-4.176l-2.188-2.195.338-.69.036-.078a30.12,30.12,0,0,0,1.295-2.9A21.512,21.512,0,0,0,72.024,46.734c-.672-.128-1.363-.217-1.992-.3l-.932-.121H66.51l-.783.1c-.555.071-1.181.149-1.8.267A21.163,21.163,0,0,0,50.408,55.2a20.882,20.882,0,0,0-4.041,10.982.237.237,0,0,1-.028.121l-.036.153a.925.925,0,0,0-.021.2V69.1a.484.484,0,0,0,0,.071l.107.8c.071.559.153,1.192.267,1.814A21.484,21.484,0,0,0,78.762,86.358q1.387,1.4,2.789,2.793C82.757,90.356,84,91.6,85.211,92.836a8.837,8.837,0,0,0,2.846,2.053,4.945,4.945,0,0,0,3.771,0,5.336,5.336,0,0,0,2.088-1.441A5.532,5.532,0,0,0,95.2,89.289ZM82.789,81.868c.224.238.452.477.69.711l3.806,3.81Q89.142,88.247,91,90.111a.761.761,0,0,1,.235.711.6.6,0,0,1-.462.416c-.181.046-.374.057-.711-.285Q86.3,87.2,82.522,83.433l-.548-.544-.1-.107Zm1.743-14.095a16.766,16.766,0,0,1-16.72,16.773H67.8a16.514,16.514,0,0,1-11.74-4.856A16.7,16.7,0,0,1,67.772,51.149H67.8a16.688,16.688,0,0,1,11.829,4.867,16.468,16.468,0,0,1,4.892,11.757Z" transform="translate(-14.085 -14.098)" fill="#fff"/>
        <path id="Path_1089" data-name="Path 1089" d="M75.374,56.05h-.2a2.413,2.413,0,0,0-2.654,2.376A2.443,2.443,0,0,0,75.1,60.892a12.878,12.878,0,0,1,1.985.213,10.786,10.786,0,0,1,8.67,10.5,2.416,2.416,0,0,0,2.412,2.512h.046a2.376,2.376,0,0,0,1.711-.744,2.551,2.551,0,0,0,.651-1.882,21.153,21.153,0,0,0-.27-2.672A15.681,15.681,0,0,0,75.374,56.05Z" transform="translate(-22.071 -17.06)" fill="#fff"/>
      </g>
    </g>
  </g>
</svg>
